<svg width="240" height="354" viewBox="0 0 240 354" fill="none" xmlns="http://www.w3.org/2000/svg">
<path d="M168.926 39.2167L212.636 64.4526L139.645 140.406L168.926 39.2167Z" fill="#89BFEB" stroke="#8AAACD" stroke-width="5"/>
<path d="M71.1581 313.777L27.4213 288.526L101.551 210.631L71.1581 313.777Z" fill="#89BFEB" stroke="#8AAACD" stroke-width="5"/>
<circle cx="121.498" cy="174.534" r="36.5" fill="#8AAACD"/>
<path d="M117.838 143.302C102.255 145.325 90.1911 158.558 89.9999 174.646C101.359 176.959 104.205 169.276 107.485 160.418C109.749 154.306 112.219 147.635 117.838 143.302Z" fill="#89BFEB"/>
<path d="M150.742 160.954C146.913 153.153 140.002 147.139 131.598 144.499C127.945 156.152 131.628 156.554 137.98 157.248C141.644 157.648 146.197 158.145 150.742 160.954Z" fill="#89BFEB"/>
<path d="M121.998 207.034C128.401 207.034 134.365 205.153 139.367 201.914C123.941 189.582 114.721 188.045 97.4085 195.514C103.278 202.554 112.115 207.034 121.998 207.034Z" fill="#89BFEB"/>
<path fill-rule="evenodd" clip-rule="evenodd" d="M146.587 195.514C144.52 197.993 142.086 200.154 139.367 201.914C123.941 189.582 114.721 188.045 97.4085 195.514C92.7814 189.965 89.9976 182.825 89.9976 175.034C89.9976 174.905 89.9983 174.775 89.9999 174.646C101.359 176.959 104.205 169.276 107.485 160.418C109.749 154.306 112.219 147.635 117.838 143.302C119.199 143.125 120.588 143.034 121.998 143.034C125.342 143.034 128.567 143.547 131.598 144.499C127.945 156.152 131.628 156.554 137.98 157.248C141.644 157.648 146.197 158.145 150.742 160.954C151.734 162.977 152.519 165.119 153.07 167.354C134.478 161.914 111.758 186.874 146.587 195.514Z" fill="#B5D8F5"/>
<path d="M153.998 175.034C153.998 172.387 153.676 169.814 153.07 167.354C134.478 161.914 111.758 186.874 146.587 195.514C151.214 189.965 153.998 182.825 153.998 175.034Z" fill="#89BFEB"/>
</svg>
