<svg width="73" height="73" viewBox="0 0 73 73" fill="none" xmlns="http://www.w3.org/2000/svg">
<circle cx="36.5" cy="36.5" r="36.5" fill="#3E458D"/>
<path d="M65.7439 22.92C61.9155 15.1191 55.0049 9.1048 46.6 6.46497C42.9472 18.1179 46.63 18.52 52.9822 19.2135C56.6465 19.6135 61.1989 20.1105 65.7439 22.92Z" fill="#21254E"/>
<path fill-rule="evenodd" clip-rule="evenodd" d="M54.3698 63.88C49.3673 67.1192 43.4033 69 37 69C29.1598 69 21.9781 66.1804 16.4137 61.5C17.6395 58.958 18.7877 56.6974 19.8925 54.6746C32.7136 50.7414 41.3215 53.4491 54.3698 63.88Z" fill="#21254E"/>
<path d="M12.411 57.48C13.2194 58.4496 14.0841 59.3706 15 60.238C15.4586 60.6723 15.93 61.0932 16.4137 61.5C17.6395 58.958 18.7877 56.6974 19.8925 54.6746C17.5561 55.3914 15.0797 56.3287 12.411 57.48Z" fill="#3E458D"/>
<path d="M10.5387 55C11.1231 55.8575 11.7481 56.6851 12.411 57.48C15.0797 56.3287 17.5561 55.3914 19.8925 54.6746C25.2966 44.7805 29.663 40.579 37 37C27.4956 38.3344 21.6732 42.2889 10.5387 55Z" fill="#3E458D"/>
<path d="M61.589 57.48C63.116 55.6486 64.4423 53.644 65.534 51.5C55.7978 51.9047 49.4187 51.2359 44.4281 47.2422C46.4497 51.2576 51.6994 55.0267 61.589 57.48Z" fill="#111548"/>
<path fill-rule="evenodd" clip-rule="evenodd" d="M69 37C69 34.3526 68.6785 31.7803 68.0724 29.32C56.843 26.0344 44.1079 33.8383 43.456 42.4383C49.1208 45.8406 55.926 46.3662 68.0724 44.68C68.6785 42.2197 69 39.6474 69 37Z" fill="#21254E"/>
<path d="M67.5663 46.5C67.7523 45.9007 67.9212 45.2938 68.0724 44.68C55.926 46.3662 49.1208 45.8406 43.456 42.4383C43.335 44.0341 43.6301 45.6573 44.4281 47.2422C49.4187 51.2359 55.7978 51.9047 65.534 51.5C66.3457 49.9058 67.0278 48.2345 67.5663 46.5Z" fill="#3E458D"/>
<path d="M37 37C39.2709 41.7222 41.6315 45.0043 44.4281 47.2422C43.6301 45.6573 43.335 44.0341 43.456 42.4383C41.2121 41.0907 39.1471 39.2917 37 37Z" fill="#3E458D"/>
<path fill-rule="evenodd" clip-rule="evenodd" d="M54.3698 63.88C57.0881 62.1198 59.5224 59.9586 61.589 57.48C51.6994 55.0267 46.4497 51.2576 44.4281 47.2422C41.6315 45.0043 39.2709 41.7222 37 37C39.1471 39.2917 41.2121 41.0907 43.456 42.4383C44.1079 33.8383 56.843 26.0344 68.0724 29.32C67.5219 27.085 66.7365 24.9425 65.7439 22.92C61.1989 20.1105 56.6465 19.6135 52.9822 19.2135C46.63 18.52 42.9472 18.1179 46.6 6.46497C43.5695 5.51313 40.3447 5 37 5C35.5902 5 34.2017 5.09117 32.84 5.26794C32.7554 5.33319 32.6715 5.39896 32.5883 5.46526C41.8455 21.3448 43.1462 29.2995 37 37C38.9186 25.8651 35.8051 19.1124 27.089 11.9505C25.1281 15.2542 23.7744 18.9095 22.4876 22.384C19.2071 31.2416 16.3617 38.9243 5.00231 36.6119C5.00077 36.7411 5 36.8704 5 37C5 43.6744 7.04339 49.8716 10.5387 55C21.6732 42.2889 27.4956 38.3344 37 37C29.663 40.579 25.2966 44.7805 19.8925 54.6746C32.7136 50.7414 41.3215 53.4491 54.3698 63.88Z" fill="#111548"/>
<path d="M37 37C43.1462 29.2995 41.8455 21.3448 32.5883 5.46526C30.2878 7.29877 28.5255 9.53031 27.089 11.9505C35.8051 19.1124 38.9186 25.8651 37 37Z" fill="#3E458D"/>
<path fill-rule="evenodd" clip-rule="evenodd" d="M32.5 5.31393C32.6131 5.298 32.7265 5.28267 32.84 5.26794C32.7554 5.33319 32.6715 5.39896 32.5883 5.46526L32.5 5.31393ZM22.4876 8.47237C12.2164 13.7079 5.14831 24.3274 5.00231 36.6119C16.3617 38.9243 19.2071 31.2416 22.4876 22.384C23.7744 18.9095 25.1281 15.2542 27.089 11.9505C25.6985 10.808 24.1655 9.65514 22.4876 8.47237Z" fill="#21254E"/>
<path d="M32.5 5.31393C28.941 5.81481 25.5701 6.90113 22.4876 8.47237C24.1655 9.65514 25.6985 10.808 27.089 11.9505C28.5255 9.53031 30.2878 7.29877 32.5883 5.46526L32.5 5.31393Z" fill="#3E458D"/>
</svg>
