<svg width="73" height="73" viewBox="0 0 73 73" fill="none" xmlns="http://www.w3.org/2000/svg">
<circle cx="36.5" cy="36.5" r="36.5" fill="#95ACD8"/>
<path d="M32.84 5.26794C17.2574 7.29082 5.19352 20.5235 5.00231 36.6119C16.3617 38.9243 19.2071 31.2416 22.4876 22.384C24.7511 16.2721 27.2219 9.60075 32.84 5.26794Z" fill="#DCE6F3"/>
<path d="M65.7439 22.92C61.9155 15.1191 55.0049 9.1048 46.6 6.46497C42.9472 18.1179 46.63 18.52 52.9822 19.2135C56.6465 19.6135 61.1989 20.1105 65.7439 22.92Z" fill="#DCE6F3"/>
<path d="M37 69C43.4033 69 49.3673 67.1192 54.3698 63.88C38.9436 51.5482 29.7237 50.011 12.411 57.48C18.2809 64.52 27.1173 69 37 69Z" fill="#DCE6F3"/>
<path fill-rule="evenodd" clip-rule="evenodd" d="M61.589 57.48C59.5224 59.9586 57.0881 62.1198 54.3698 63.88C38.9436 51.5482 29.7237 50.011 12.411 57.48C7.78382 51.9305 5 44.7904 5 37C5 36.8704 5.00077 36.7411 5.00231 36.6119C16.3617 38.9243 19.2071 31.2416 22.4876 22.384C24.7511 16.2721 27.2219 9.60075 32.84 5.26794C34.2017 5.09117 35.5902 5 37 5C40.3447 5 43.5695 5.51313 46.6 6.46497C42.9472 18.1179 46.63 18.52 52.9822 19.2135C56.6465 19.6135 61.1989 20.1105 65.7439 22.92C66.7365 24.9425 67.5219 27.085 68.0724 29.32C49.48 23.88 26.76 48.84 61.589 57.48Z" fill="#ADD0ED"/>
<path d="M69 37C69 34.3526 68.6785 31.7803 68.0724 29.32C49.48 23.88 26.76 48.84 61.589 57.48C66.2162 51.9305 69 44.7904 69 37Z" fill="#DCE6F3"/>
</svg>
