<svg width="194" height="283" viewBox="0 0 194 283" fill="none" xmlns="http://www.w3.org/2000/svg">
<g clip-path="url(#clip0_2018_174)">
<path d="M145.926 4.21671L189.636 29.4526L116.645 105.406L145.926 4.21671Z" fill="#DCE6F3" stroke="#A6BAE2" stroke-width="5"/>
<path d="M48.1581 278.777L4.42128 253.526L78.551 175.631L48.1581 278.777Z" fill="#DCE6F3" stroke="#A6BAE2" stroke-width="5"/>
<circle cx="98.4976" cy="139.534" r="36.5" fill="#A6BAE2"/>
<path d="M94.8376 108.302C79.255 110.325 67.1911 123.558 66.9999 139.646C78.3593 141.959 81.2047 134.276 84.4851 125.418C86.7487 119.306 89.2195 112.635 94.8376 108.302Z" fill="#DCE6F3"/>
<path d="M127.742 125.954C123.913 118.153 117.002 112.139 108.598 109.499C104.945 121.152 108.628 121.554 114.98 122.248C118.644 122.648 123.197 123.145 127.742 125.954Z" fill="#DCE6F3"/>
<path d="M98.9976 172.034C105.401 172.034 111.365 170.153 116.367 166.914C100.941 154.582 91.7212 153.045 74.4085 160.514C80.2784 167.554 89.1148 172.034 98.9976 172.034Z" fill="#DCE6F3"/>
<path fill-rule="evenodd" clip-rule="evenodd" d="M123.587 160.514C121.52 162.993 119.086 165.154 116.367 166.914C100.941 154.582 91.7212 153.045 74.4085 160.514C69.7814 154.965 66.9976 147.825 66.9976 140.034C66.9976 139.905 66.9983 139.775 66.9999 139.646C78.3593 141.959 81.2047 134.276 84.4851 125.418C86.7487 119.306 89.2195 112.635 94.8376 108.302C96.1992 108.125 97.5877 108.034 98.9976 108.034C102.342 108.034 105.567 108.547 108.598 109.499C104.945 121.152 108.628 121.554 114.98 122.248C118.644 122.648 123.197 123.145 127.742 125.954C128.734 127.977 129.519 130.119 130.07 132.354C111.478 126.914 88.7576 151.874 123.587 160.514Z" fill="#B5D8F5"/>
<path d="M130.998 140.034C130.998 137.387 130.676 134.814 130.07 132.354C111.478 126.914 88.7576 151.874 123.587 160.514C128.214 154.965 130.998 147.825 130.998 140.034Z" fill="#DCE6F3"/>
</g>
<defs>
<clipPath id="clip0_2018_174">
<rect width="194" height="283" fill="white"/>
</clipPath>
</defs>
</svg>
