<svg width="101" height="223" viewBox="0 0 101 223" fill="none" xmlns="http://www.w3.org/2000/svg">
<path d="M70.9358 187.777L67.8552 176.279C64.3727 175.781 61.0042 174.802 60.4027 170.683L63.8978 194.62C63.7291 192.163 66.6244 190.404 69.6798 188.546C70.098 188.292 70.5191 188.036 70.9358 187.777Z" fill="#52599C"/>
<path d="M60.4027 170.683C61.0042 174.802 64.3727 175.781 67.8552 176.279L64.4684 163.64C64.1946 163.958 63.9154 164.274 63.6378 164.588C61.8317 166.632 60.0978 168.594 60.4027 170.683Z" fill="#646BAA"/>
<path d="M69.6798 188.546C66.6244 190.404 63.7291 192.163 63.8978 194.62L63.9667 195.092C64.7771 200.642 69.0226 199.747 73.5942 198.784L73.8697 198.726L70.9358 187.777C70.5191 188.036 70.098 188.292 69.6798 188.546Z" fill="#646BAA"/>
<path d="M64.4684 163.64C66.3965 161.396 68.0551 159.019 66.9518 156.246C66.2771 154.55 64.4746 153.561 62.5695 152.517C62.1467 152.285 61.719 152.051 61.2973 151.805L64.4684 163.64Z" fill="#646BAA"/>
<path d="M53.2746 121.864L56.8387 146.273C57.2487 149.081 59.1967 150.581 61.2973 151.805L53.2746 121.864Z" fill="#646BAA"/>
<path d="M67.8552 176.279L70.9358 187.777C74.4476 185.587 77.6438 183.123 76.0699 179.167C75.279 177.179 72.5565 176.854 69.5914 176.5C69.0177 176.432 68.4348 176.362 67.8552 176.279Z" fill="#646BAA"/>
<path d="M85.188 202.088C83.1209 196.892 78.3683 197.78 73.8697 198.726L78.1362 214.649C85.1355 209.422 86.4774 205.329 85.188 202.088Z" fill="#646BAA"/>
<path d="M73.0848 218.013L78.6389 216.525L78.1362 214.649C76.6995 215.722 75.0244 216.842 73.0848 218.013Z" fill="#646BAA"/>
<path d="M85.188 202.088L80.629 190.627L76.0699 179.167C77.6438 183.123 74.4476 185.587 70.9358 187.777L73.8697 198.726C78.3683 197.78 83.1209 196.892 85.188 202.088Z" fill="#52599C"/>
<path d="M67.5308 219.501L73.0848 218.013C75.0244 216.842 76.6995 215.722 78.1362 214.649L73.8697 198.726L73.5942 198.784C69.0226 199.747 64.7771 200.642 63.9667 195.092L67.5308 219.501Z" fill="#52599C"/>
<path d="M78.6389 216.525L89.7471 213.548L85.188 202.088C86.4774 205.329 85.1355 209.422 78.1362 214.649L78.6389 216.525Z" fill="#52599C"/>
<path d="M56.8387 146.273L60.4027 170.683C60.0978 168.594 61.8317 166.632 63.6378 164.588C63.9154 164.274 64.1946 163.958 64.4684 163.64L61.2973 151.805C59.1967 150.581 57.2487 149.081 56.8387 146.273Z" fill="#52599C"/>
<path fill-rule="evenodd" clip-rule="evenodd" d="M67.5308 219.501C61.8562 221.022 56.2467 216.855 56.063 210.983L53.2746 121.864L56.8387 146.273L60.4027 170.683L63.8978 194.62L63.9667 195.092L67.5308 219.501ZM66.9518 156.246L71.5109 167.706L76.0699 179.167L80.629 190.627L85.188 202.088L89.7471 213.548C95.4216 212.028 98.1963 205.615 95.4195 200.438L53.2746 121.864L62.3927 144.785L66.9518 156.246Z" fill="#33386C"/>
<path d="M62.3927 144.785L53.2746 121.864L61.2973 151.805C61.719 152.051 62.1467 152.285 62.5695 152.517C64.4746 153.561 66.2771 154.55 66.9518 156.246L62.3927 144.785Z" fill="#52599C"/>
<path d="M76.0699 179.167L71.5109 167.706L66.9518 156.246C68.0551 159.019 66.3965 161.396 64.4684 163.64L67.8552 176.279C68.4348 176.362 69.0177 176.432 69.5914 176.5C72.5565 176.854 75.279 177.179 76.0699 179.167Z" fill="#52599C"/>
<path d="M29.9194 34.7011L33 46.1983C30.2331 48.3707 27.8056 50.9032 29.3443 54.7714L20.4026 32.2936C21.4848 34.5055 24.872 34.5818 28.4466 34.6623C28.9358 34.6733 29.4286 34.6844 29.9194 34.7011Z" fill="#52599C"/>
<path d="M29.3443 54.7714C27.8056 50.9032 30.2331 48.3707 33 46.1983L36.3868 58.8378C35.9903 58.6988 35.5905 58.5648 35.1931 58.4316C32.6072 57.5648 30.1245 56.7326 29.3443 54.7714Z" fill="#646BAA"/>
<path d="M28.4466 34.6623C24.872 34.5818 21.4848 34.5055 20.4026 32.2936L20.2262 31.8503C18.1531 26.639 22.2772 25.2909 26.7179 23.8394L26.9855 23.7518L29.9194 34.7011C29.4286 34.6844 28.9358 34.6733 28.4466 34.6623Z" fill="#646BAA"/>
<path d="M36.3868 58.8378C39.1785 59.817 41.8033 61.0461 42.2345 63.9996C42.4982 65.8058 41.4313 67.5629 40.3037 69.4199C40.0534 69.832 39.8002 70.249 39.5579 70.6726L36.3868 58.8378Z" fill="#646BAA"/>
<path d="M47.5806 100.614L38.4624 77.6925C37.4135 75.0556 38.3506 72.7828 39.5579 70.6726L47.5806 100.614Z" fill="#646BAA"/>
<path d="M33 46.1983L29.9194 34.7011C34.0554 34.8415 38.0553 35.377 38.6705 39.5903C38.9796 41.7075 36.7842 43.35 34.3933 45.1389C33.9306 45.4851 33.4606 45.8367 33 46.1983Z" fill="#646BAA"/>
<path d="M35.1064 15.1811C35.9144 20.7148 31.3542 22.3215 26.9855 23.7518L22.719 7.82889C31.3938 8.85561 34.6024 11.7293 35.1064 15.1811Z" fill="#646BAA"/>
<path d="M16.6622 7.44105L22.2163 5.95284L22.719 7.82889C20.9383 7.61813 18.9274 7.48519 16.6622 7.44105Z" fill="#646BAA"/>
<path d="M35.1064 15.1811L36.8885 27.3857L38.6705 39.5903C38.0553 35.377 34.0554 34.8415 29.9194 34.7011L26.9855 23.7518C31.3542 22.3215 35.9144 20.7148 35.1064 15.1811Z" fill="#52599C"/>
<path d="M11.1081 8.92926L16.6622 7.44105C18.9274 7.48519 20.9383 7.61813 22.719 7.82889L26.9855 23.7518L26.7179 23.8394C22.2772 25.2909 18.1531 26.639 20.2262 31.8503L11.1081 8.92926Z" fill="#52599C"/>
<path d="M22.2163 5.95284L33.3244 2.97642L35.1064 15.1811C34.6024 11.7293 31.3938 8.85561 22.719 7.82889L22.2163 5.95284Z" fill="#52599C"/>
<path d="M38.4624 77.6925L29.3443 54.7714C30.1245 56.7326 32.6072 57.5648 35.1931 58.4316C35.5905 58.5648 35.9903 58.6988 36.3868 58.8378L39.5579 70.6726C38.3506 72.7828 37.4135 75.0556 38.4624 77.6925Z" fill="#52599C"/>
<path fill-rule="evenodd" clip-rule="evenodd" d="M11.1081 8.92926C5.43362 10.4497 2.65892 16.8629 5.43573 22.0399L47.5806 100.614L38.4624 77.6925L29.3443 54.7714L20.4026 32.2936L20.2262 31.8503L11.1081 8.92926ZM42.2345 63.9996L40.4525 51.795L38.6705 39.5903L36.8885 27.3857L35.1064 15.1811L33.3244 2.97642C38.999 1.45594 44.6085 5.62255 44.7922 11.4944L47.5806 100.614L44.0165 76.2043L42.2345 63.9996Z" fill="#33386C"/>
<path d="M44.0165 76.2043L47.5806 100.614L39.5579 70.6726C39.8002 70.249 40.0534 69.832 40.3037 69.4199C41.4313 67.5629 42.4982 65.8058 42.2345 63.9996L44.0165 76.2043Z" fill="#52599C"/>
<path d="M38.6705 39.5903L40.4525 51.795L42.2345 63.9996C41.8033 61.0461 39.1785 59.817 36.3868 58.8378L33 46.1983C33.4606 45.8367 33.9306 45.4851 34.3933 45.1389C36.7842 43.35 38.9796 41.7075 38.6705 39.5903Z" fill="#52599C"/>
<circle cx="49.5565" cy="109.919" r="36.5" transform="rotate(-15 49.5565 109.919)" fill="#3E458D"/>
<path d="M74.2892 89.2332C68.5722 82.689 60.3405 78.6682 51.5387 78.2937C51.0264 90.495 54.6878 89.9302 61.003 88.9559C64.6459 88.394 69.1719 87.6957 74.2892 89.2332Z" fill="#21254E"/>
<path fill-rule="evenodd" clip-rule="evenodd" d="M73.9039 131.741C69.9102 136.165 64.6362 139.525 58.4511 141.183C50.878 143.212 43.2113 142.347 36.6251 139.266C37.1512 136.494 37.6752 134.013 38.2189 131.773C49.5851 124.656 58.6004 125.043 73.9039 131.741Z" fill="#21254E"/>
<path d="M31.7183 136.419C32.7501 137.146 33.8237 137.812 34.933 138.413C35.4883 138.714 36.0526 138.998 36.6251 139.266C37.1512 136.494 37.6752 134.013 38.2189 131.773C36.1475 133.07 33.9981 134.616 31.7183 136.419Z" fill="#21254E"/>
<path d="M79.2207 123.691C80.2217 121.527 80.9839 119.247 81.4835 116.894C72.1838 119.805 65.8489 120.81 59.9947 118.244C62.9868 121.599 69.0331 123.881 79.2207 123.691Z" fill="#21254E"/>
<path fill-rule="evenodd" clip-rule="evenodd" d="M81.0785 101.991C80.3933 99.4335 79.417 97.0321 78.1948 94.8125C66.4976 94.5452 56.2163 105.379 57.8124 113.855C64.1648 115.675 70.8741 114.422 82.1703 109.649C82.1189 107.116 81.7637 104.548 81.0785 101.991Z" fill="#21254E"/>
<path d="M82.1524 111.538C82.177 110.911 82.1831 110.281 82.1703 109.649C70.8741 114.422 64.1648 115.675 57.8124 113.855C58.1086 115.428 58.8138 116.919 59.9947 118.244C65.8489 120.81 72.1838 119.805 81.4835 116.894C81.8549 115.144 82.0812 113.353 82.1524 111.538Z" fill="#21254E"/>
<path fill-rule="evenodd" clip-rule="evenodd" d="M37.6213 80.8312C37.7264 80.7866 37.8319 80.7424 37.9378 80.6988C37.8729 80.7837 37.8089 80.869 37.7457 80.9545L37.6213 80.8312ZM28.7674 86.4734C20.2013 94.1889 16.1226 106.276 19.161 118.18C30.7319 117.473 31.4919 109.316 32.368 99.911C32.7117 96.2219 33.0733 92.3408 34.1123 88.6422C32.4735 87.8985 30.6943 87.1816 28.7674 86.4734Z" fill="#21254E"/>
<path d="M37.6213 80.8312C34.3132 82.2362 31.3382 84.1579 28.7674 86.4734C30.6943 87.1816 32.4735 87.8985 34.1123 88.6422C34.8734 85.9326 35.9982 83.321 37.7457 80.9545L37.6213 80.8312Z" fill="#21254E"/>
<path d="M51.5387 78.2937C48.3651 78.1586 45.1174 78.4976 41.8867 79.3633C40.5249 79.7282 39.2073 80.1756 37.9378 80.6988C37.8729 80.7837 37.8089 80.869 37.7457 80.9545C35.9982 83.321 34.8734 85.9326 34.1123 88.6422C33.0733 92.3408 32.7117 96.2219 32.368 99.911C31.4919 109.316 30.7319 117.473 19.161 118.18C19.193 118.305 19.2257 118.43 19.2593 118.555C20.9867 125.002 24.5644 130.459 29.268 134.508C30.0544 135.185 30.8723 135.823 31.7183 136.419C33.9981 134.616 36.1475 133.07 38.2189 131.773C49.5851 124.656 58.6004 125.043 73.9039 131.741C76.0739 129.338 77.866 126.62 79.2207 123.691C69.0331 123.881 62.9868 121.599 59.9947 118.244C58.8138 116.919 58.1086 115.428 57.8124 113.855C56.2163 105.379 66.4976 94.5452 78.1948 94.8125C77.0846 92.7961 75.7714 90.9299 74.2892 89.2332C69.1719 87.6957 64.6459 88.394 61.003 88.9559C54.6878 89.9302 51.0264 90.495 51.5387 78.2937Z" fill="#111548"/>
</svg>
